# xmcd
#
# Track frame offsets:
#	150
#	17185
#	31990
#	46549
#	60053
#	75779
#	89826
#	105846
#	123650
#	140154
#	153758
#
# Disc length: 2267 seconds
#
# Revision: 1
# Processed by: cddbd v1.5.2PL0 Copyright (c) Steve Scherf et al.
# Submitted via: EasyCDDAExtractor 7.0.3.1
#
DISCID=7708d90b
DTITLE=Glenda Lynn - Blue Roses
DYEAR=1998
DGENRE=Country
TTITLE0=Blue Roses
TTITLE1=Thank God For Cowboys
TTITLE2=Another Heart
TTITLE3=Some Monday
TTITLE4=That's the Silence You Heard
TTITLE5=A Moment of Weakness
TTITLE6=We've Lost It
TTITLE7=Wasy Touch
TTITLE8=Love's Gonna Run Out On You
TTITLE9=Still Under the Weather
TTITLE10=What It's Not
EXTD=
EXTT0=
EXTT1=
EXTT2=
EXTT3=
EXTT4=
EXTT5=
EXTT6=
EXTT7=
EXTT8=
EXTT9=
EXTT10=
PLAYORDER=
